<svg width="28" height="24" viewBox="0 0 28 24" fill="none" xmlns="http://www.w3.org/2000/svg">
<path d="M25.7787 2.34622C24.3293 0.833265 22.3405 0 20.1782 0C18.5619 0 17.0817 0.491776 15.7786 1.46155C15.1211 1.95107 14.5253 2.54996 14 3.24897C13.4749 2.55016 12.8789 1.95107 12.2212 1.46155C10.9183 0.491776 9.43808 0 7.82181 0C5.65952 0 3.67047 0.833265 2.22104 2.34622C0.78891 3.84149 0 5.88425 0 8.09848C0 10.3775 0.882477 12.4636 2.7771 14.6639C4.47198 16.632 6.90793 18.6299 9.72882 20.9435C10.692 21.7336 11.7839 22.6291 12.9176 23.5831C13.2171 23.8355 13.6014 23.9745 14 23.9745C14.3984 23.9745 14.7829 23.8355 15.082 23.5835C16.2157 22.6293 17.3082 21.7333 18.2718 20.9428C21.0923 18.6297 23.5282 16.632 25.2231 14.6637C27.1177 12.4636 28 10.3775 28 8.09827C28 5.88425 27.2111 3.84149 25.7787 2.34622Z" fill="#E0DDF5"/>
</svg>
