<svg width="32" height="32" viewBox="0 0 32 32" fill="none" xmlns="http://www.w3.org/2000/svg">
<rect opacity="0.2" width="32" height="32" rx="12" fill="#6155CC"/>
<path d="M15.9563 25.5546C16.7537 25.5546 17.4001 24.8824 17.4001 24.0532C17.4001 23.224 16.7537 22.5518 15.9563 22.5518C15.159 22.5518 14.5126 23.224 14.5126 24.0532C14.5126 24.8824 15.159 25.5546 15.9563 25.5546Z" fill="#6155CC"/>
<path d="M26.9652 11.3757C24.0895 8.16708 20.1954 6.39995 15.9999 6.3999C11.8047 6.39995 7.91066 8.16708 5.03493 11.3757C4.70549 11.7433 4.72496 12.3191 5.07846 12.6618C5.432 13.0044 5.98566 12.9842 6.31514 12.6165C8.85614 9.78129 12.2956 8.21985 16.0002 8.21981C19.7045 8.21985 23.144 9.78129 25.685 12.6165C25.8573 12.8088 26.091 12.9061 26.3253 12.9061C26.5389 12.9061 26.753 12.8252 26.9217 12.6618C27.2752 12.3191 27.2947 11.7433 26.9652 11.3757Z" fill="#6155CC"/>
<path d="M23.7522 15.1335C21.6265 12.9062 18.8734 11.6796 15.9999 11.6797C13.1257 11.6797 10.3726 12.9063 8.24753 15.1335C7.90716 15.4903 7.9093 16.0664 8.25235 16.4204C8.59539 16.7744 9.1494 16.7721 9.48977 16.4154C11.2837 14.5352 13.5958 13.4996 15.9999 13.4996C18.4034 13.4995 20.7155 14.5351 22.5101 16.4155C22.6811 16.5947 22.9061 16.6844 23.1312 16.6844C23.3539 16.6844 23.5769 16.5964 23.7476 16.4203C24.0905 16.0663 24.0926 15.4902 23.7522 15.1335Z" fill="#6155CC"/>
<path d="M20.2503 18.9024C19.112 17.7295 17.4802 17.001 15.9918 17.001C15.9916 17.001 15.9913 17.001 15.9911 17.001H15.9281C15.9278 17.001 15.9277 17.001 15.9274 17.001C14.4389 17.001 12.807 17.7296 11.6687 18.9024C11.3254 19.2561 11.3228 19.8322 11.663 20.1893C11.8341 20.3688 12.0593 20.4588 12.2846 20.4588C12.5071 20.4588 12.7298 20.371 12.9003 20.1953C13.7107 19.3603 14.8988 18.8209 15.9275 18.8209C15.9276 18.8209 15.9278 18.8209 15.9279 18.8209H15.9912C15.9914 18.8209 15.9914 18.8209 15.9916 18.8209C17.0201 18.8209 18.2083 19.3603 19.0186 20.1953C19.3619 20.5489 19.916 20.5464 20.2561 20.1893C20.5962 19.8323 20.5936 19.2561 20.2503 18.9024Z" fill="#6155CC"/>
</svg>
