<svg width="106" height="106" viewBox="0 0 106 106" fill="none" xmlns="http://www.w3.org/2000/svg">
<path fill-rule="evenodd" clip-rule="evenodd" d="M106 54.2049C106 50.4467 105.656 46.8331 105.017 43.364H54.0816V63.8653H83.1874C81.9337 70.4903 78.1234 76.1035 72.3956 79.8617V93.1599H89.8738C100.1 83.9331 106 70.3458 106 54.2049Z" fill="#4285F4"/>
<path fill-rule="evenodd" clip-rule="evenodd" d="M54.0817 106C68.6837 106 80.9258 101.254 89.8738 93.1599L72.3956 79.8617C67.5529 83.0417 61.3581 84.9204 54.0817 84.9204C39.9959 84.9204 28.0733 75.5973 23.8205 63.07H5.75235V76.8018C14.6512 94.1232 32.9407 106 54.0817 106Z" fill="#34A853"/>
<path fill-rule="evenodd" clip-rule="evenodd" d="M23.8205 63.07C22.7389 59.89 22.1243 56.4935 22.1243 53.0003C22.1243 49.5071 22.7389 46.1103 23.8205 42.9303V29.1985H5.75232C2.08952 36.3535 0 44.448 0 53.0003C0 61.5526 2.08954 69.6468 5.75235 76.8018L23.8205 63.07Z" fill="#FBBC05"/>
<path fill-rule="evenodd" clip-rule="evenodd" d="M54.0817 21.0796C62.0219 21.0796 69.1508 23.7537 74.7556 29.0055L90.2673 13.8041C80.9013 5.25182 68.6592 0 54.0817 0C32.9407 0 14.6512 11.8771 5.75232 29.1985L23.8205 42.9303C28.0733 30.403 39.9959 21.0796 54.0817 21.0796Z" fill="#EA4335"/>
</svg>
