<svg width="12" height="16" viewBox="0 0 12 16" fill="none" xmlns="http://www.w3.org/2000/svg">
<path fill-rule="evenodd" clip-rule="evenodd" d="M0.0184326 5.79456C0.0184326 2.59944 2.70172 0 5.99995 0C9.29814 0 11.9814 2.59944 11.9815 5.79456C11.9815 9.75981 6.62859 15.581 6.40069 15.8269C6.18701 16.0575 5.81327 16.0579 5.59921 15.8269C5.3713 15.581 0.0184326 9.75981 0.0184326 5.79456ZM2.99053 5.79456C2.99053 7.40213 4.34053 8.70997 5.99995 8.70997C7.65934 8.70997 9.00934 7.40216 9.00934 5.79459C9.00934 4.18703 7.65934 2.87919 5.99995 2.87919C4.34056 2.87919 2.99053 4.187 2.99053 5.79456Z" fill="#F77777"/>
</svg>
