<svg width="20" height="24" viewBox="0 0 20 24" fill="none" xmlns="http://www.w3.org/2000/svg">
<path fill-rule="evenodd" clip-rule="evenodd" d="M18.1855 17.381L19.8981 20.243C19.9908 20.397 19.9928 20.59 19.905 20.746C19.8164 20.903 19.6499 21 19.4704 21H0.529624C0.350184 21 0.183736 20.903 0.0949975 20.746C0.00724046 20.59 0.0092498 20.397 0.10196 20.243L1.81462 17.381C2.60416 16.06 3.02187 14.548 3.02187 13.007V10.5C3.02187 6.641 6.15308 3.5 10 3.5C13.847 3.5 16.9782 6.641 16.9782 10.5V13.007C16.9782 14.548 17.3959 16.06 18.1855 17.381ZM2.66897 17.895L1.4099 20H18.5902L17.3301 17.895C16.4479 16.419 15.9814 14.729 15.9814 13.007V10.5C15.9814 7.19098 13.2987 4.49998 10 4.49998C6.70135 4.49998 4.01874 7.19098 4.01874 10.5V13.007C4.01874 14.729 3.55219 16.419 2.66897 17.895Z" fill="white"/>
<path d="M10 0C8.90043 0 8.00623 0.897 8.00623 2.00002V4.00003C8.00623 4.27598 8.22954 4.5 8.50468 4.5C8.77982 4.5 9.00314 4.27598 9.00314 3.99998V2.00002C9.00314 1.44802 9.44973 1.00003 10 1.00003C10.5503 1.00003 10.9969 1.44802 10.9969 2.00002V4.00003C10.9969 4.27598 11.2202 4.5 11.4953 4.5C11.7705 4.5 11.9938 4.27598 11.9938 3.99998V2.00002C11.9938 0.897 11.0996 0 10 0Z" fill="white"/>
<path d="M12.1573 20.2469C12.0167 20.0089 11.7127 19.9309 11.4744 20.0679C11.2362 20.2079 11.1565 20.5149 11.296 20.7529C11.4256 20.9739 11.4964 21.2389 11.4964 21.4999C11.4964 22.3269 10.8255 22.9999 10.001 22.9999C9.1766 22.9999 8.50571 22.3269 8.50571 21.4999C8.50571 21.2389 8.5765 20.9739 8.70608 20.7529C8.84463 20.5138 8.76492 20.2078 8.52763 20.0679C8.28739 19.9309 7.98431 20.0089 7.84478 20.2469C7.62445 20.6249 7.50781 21.0579 7.50781 21.4999C7.50786 22.8789 8.62534 23.9999 10.0001 23.9999C11.3748 23.9999 12.4923 22.8789 12.4943 21.4999C12.4943 21.0579 12.3776 20.6249 12.1573 20.2469Z" fill="white"/>
</svg>
