<svg width="32" height="32" viewBox="0 0 32 32" fill="none" xmlns="http://www.w3.org/2000/svg">
<rect opacity="0.2" width="32" height="32" rx="12" fill="#FE9C5E"/>
<path fill-rule="evenodd" clip-rule="evenodd" d="M24.6618 15.7331C24.5814 15.8908 24.5814 16.0718 24.6618 16.2295L25.407 17.6916C25.8219 18.5057 25.4932 19.476 24.6586 19.9007L23.1597 20.6634C22.998 20.7457 22.8872 20.8921 22.8555 21.065L22.5623 22.6679C22.3991 23.5604 21.5387 24.1602 20.603 24.0332L18.9229 23.8053C18.7416 23.7809 18.5622 23.8366 18.4306 23.9587L17.2111 25.0902C16.8716 25.4052 16.4358 25.5627 16.0001 25.5627C15.5644 25.5627 15.1288 25.4052 14.7892 25.0902L13.5697 23.9587C13.4381 23.8366 13.2586 23.7806 13.0774 23.8053L11.3973 24.0332C11.3135 24.0446 11.23 24.0501 11.1478 24.0501C10.313 24.0502 9.58655 23.4804 9.43795 22.6679L9.14479 21.065C9.11315 20.8921 9.00228 20.7457 8.84056 20.6634L7.34163 19.9007C6.50706 19.476 6.17832 18.5057 6.59322 17.6916L7.33843 16.2296C7.41882 16.0719 7.41882 15.8909 7.33843 15.7332L6.59326 14.2711C6.17836 13.4571 6.5071 12.4867 7.34167 12.0621L8.8406 11.2993C9.00228 11.217 9.11315 11.0706 9.14479 10.8977L9.43795 9.29483C9.60118 8.40235 10.4617 7.80255 11.3973 7.92954L13.0774 8.15746C13.2587 8.18194 13.438 8.12614 13.5696 8.00405L14.7892 6.87245C15.4682 6.24237 16.532 6.24241 17.2111 6.87245L18.4306 8.00394C18.5622 8.12599 18.7415 8.1819 18.9229 8.15735L20.603 7.92942C21.5383 7.80251 22.3991 8.40224 22.5623 9.29472L22.8555 10.8977C22.8871 11.0706 22.998 11.217 23.1597 11.2992L24.6586 12.062C25.4932 12.4867 25.8219 13.457 25.407 14.271L24.6618 15.7331ZM15.8081 13.0341C15.8081 11.9168 14.8603 11.0078 13.6953 11.0078C12.5304 11.0078 11.5826 11.9168 11.5826 13.0341C11.5826 14.1513 12.5304 15.0603 13.6953 15.0603C14.8603 15.0603 15.8081 14.1513 15.8081 13.0341ZM12.6048 20.0191C12.4923 20.127 12.3448 20.181 12.1974 20.181C12.05 20.181 11.9025 20.127 11.79 20.0191C11.565 19.8033 11.565 19.4534 11.79 19.2376L19.3954 11.9435C19.6204 11.7277 19.9853 11.7277 20.2103 11.9435C20.4353 12.1593 20.4353 12.5092 20.2103 12.725L12.6048 20.0191ZM16.1921 18.9286C16.1921 20.0459 17.1399 20.9548 18.3049 20.9548C19.4698 20.9548 20.4176 20.0459 20.4176 18.9286C20.4176 17.8113 19.4698 16.9023 18.3049 16.9023C17.1399 16.9023 16.1921 17.8113 16.1921 18.9286Z" fill="#FE9C5E"/>
<path d="M18.3048 18.0076C17.7753 18.0076 17.3445 18.4207 17.3445 18.9286C17.3445 19.4364 17.7753 19.8496 18.3048 19.8496C18.8344 19.8496 19.2651 19.4364 19.2651 18.9286C19.2651 18.4207 18.8344 18.0076 18.3048 18.0076Z" fill="#FE9C5E"/>
<path d="M13.6953 12.113C13.1658 12.113 12.735 12.5262 12.735 13.034C12.735 13.5419 13.1658 13.9551 13.6953 13.9551C14.2248 13.9551 14.6556 13.5419 14.6556 13.034C14.6556 12.5262 14.2248 12.113 13.6953 12.113Z" fill="#FE9C5E"/>
</svg>
