<svg width="28" height="24" viewBox="0 0 28 24" fill="none" xmlns="http://www.w3.org/2000/svg">
<path fill-rule="evenodd" clip-rule="evenodd" d="M19.8334 3.78394H25.6666C26.9536 3.78394 28 4.90358 28 6.28045V10.0253C28 11.4022 26.9536 12.5218 25.6668 12.5218H16.3334V11.8977C16.3334 11.5527 16.0725 11.2735 15.7501 11.2735H12.2501C11.9276 11.2735 11.6667 11.5527 11.6667 11.8977V12.5218H2.33335C1.04645 12.5218 0 11.4022 0 10.0253V6.28045C0 4.90358 1.04645 3.78394 2.33335 3.78388H8.16665V2.53563C8.16665 1.1587 9.21315 0.0390625 10.5 0.0390625H17.5C18.7869 0.0390625 19.8334 1.15876 19.8334 2.53563V3.78394ZM10.5 3.78394H17.5V2.53563H10.5V3.78394Z" fill="#E0DDF5"/>
<path d="M26.0175 13.1873C25.8428 13.0947 25.6341 13.1161 25.4799 13.2414C25.1155 13.5365 24.691 13.6924 24.2514 13.6924H16.0503V15.3377C16.0503 15.6408 15.821 15.8861 15.5377 15.8861H12.4622C12.1789 15.8861 11.9496 15.6408 11.9496 15.3377V13.6924H3.74844C3.30894 13.6924 2.88448 13.5365 2.52004 13.2414C2.36535 13.115 2.15713 13.0936 1.98241 13.1873C1.80826 13.28 1.69812 13.4701 1.69812 13.6785V21.3704C1.69812 22.5803 2.61764 23.5642 3.74844 23.5642H24.2515C25.3823 23.5642 26.3019 22.5803 26.3019 21.3704V13.6785C26.3018 13.4701 26.1917 13.28 26.0175 13.1873Z" fill="#E0DDF5"/>
</svg>
