<svg width="20" height="24" viewBox="0 0 20 24" fill="none" xmlns="http://www.w3.org/2000/svg">
<path d="M10 0C6.6916 0 4 2.8388 4 6.32812C4 9.81745 6.6916 12.6562 10 12.6562C13.3084 12.6562 16 9.81745 16 6.32812C16 2.8388 13.3084 0 10 0Z" fill="#E0DDF5"/>
<path d="M17.4652 16.7904C15.8225 15.0313 13.6448 14.0625 11.3333 14.0625H8.66667C6.3552 14.0625 4.17751 15.0313 2.53484 16.7904C0.900222 18.5409 0 20.8515 0 23.2969C0 23.6852 0.298489 24 0.666667 24H19.3333C19.7015 24 20 23.6852 20 23.2969C20 20.8515 19.0998 18.5409 17.4652 16.7904Z" fill="#E0DDF5"/>
</svg>
