<svg width="32" height="32" viewBox="0 0 32 32" fill="none" xmlns="http://www.w3.org/2000/svg">
<rect opacity="0.2" width="32" height="32" rx="12" fill="#3EC8BC"/>
<path d="M10.8799 11.3648H12.48C12.8334 11.3648 13.1199 11.0685 13.1199 10.7029C13.1199 10.3373 12.8334 10.0409 12.48 10.0409C12.3519 10.0692 12.2197 10.0183 12.1408 9.9103C12.0631 9.8047 12.0534 9.66151 12.1161 9.54591C12.1449 9.4953 12.1602 9.43757 12.16 9.37894C12.1596 9.22651 12.0585 9.09409 11.9154 9.05818C11.7723 9.02227 11.6239 9.09212 11.5559 9.22742C11.4881 9.36257 11.5183 9.52833 11.629 9.62879C11.6472 9.64212 11.6646 9.65606 11.6822 9.67045C11.8171 9.78151 11.8428 9.98318 11.7401 10.1265C11.6375 10.2698 11.4436 10.3033 11.3015 10.2021C11.2803 10.1871 11.2596 10.1714 11.2397 10.1547C11.0122 9.995 10.7117 10.0033 10.4929 10.1753C10.274 10.3473 10.1857 10.6445 10.2733 10.9139C10.3611 11.1833 10.6051 11.3647 10.8799 11.3648Z" fill="#3EC8BC"/>
<path d="M15.06 11.6943C14.829 11.6872 14.6122 11.8092 14.4926 12.0137C14.3729 12.2182 14.3691 12.4737 14.4824 12.6819C14.5958 12.8902 14.809 13.0193 15.04 13.0196H15.5072C15.8242 12.6566 15.9999 12.1848 16 11.6957V11.0335C16 10.8508 15.8568 10.7026 15.68 10.7026C15.5033 10.7026 15.36 10.8508 15.36 11.0335C15.3596 11.0923 15.3747 11.1499 15.4038 11.2004C15.4699 11.3138 15.4642 11.4572 15.3893 11.5646C15.3146 11.6722 15.185 11.7231 15.06 11.6943Z" fill="#3EC8BC"/>
<path d="M10.24 8.3856V9.56272C10.4338 9.44348 10.6547 9.38 10.88 9.37863C10.88 8.83015 11.3099 8.3856 11.84 8.3856C12.3703 8.3856 12.8001 8.83015 12.8001 9.37863C12.8001 9.39257 12.7998 9.40636 12.7991 9.4203C13.4237 9.58636 13.8312 10.2071 13.7502 10.8689C13.6692 11.5306 13.1249 12.0267 12.48 12.0265H10.88C10.6576 12.0251 10.4394 11.963 10.2475 11.8465C10.3242 12.8808 11.1573 13.6798 12.1601 13.6815H14.0801C14.2616 13.6812 14.4422 13.6541 14.6164 13.6011C14.0846 13.4094 13.737 12.8798 13.7612 12.298C13.7854 11.7161 14.1753 11.2192 14.7209 11.0753C14.7204 11.0614 14.7201 11.0474 14.7201 11.0335C14.7207 10.4855 15.1501 10.0412 15.68 10.0406C15.7893 10.0417 15.8975 10.0623 16 10.1015V8.3856C15.9996 8.16 15.9617 7.93606 15.888 7.72363H10.3521C10.2784 7.93606 10.2404 8.16 10.24 8.3856Z" fill="#3EC8BC"/>
<path d="M14.0801 6.3999H12.1601C11.6149 6.40021 11.0957 6.64111 10.733 7.06187H15.5073C15.1444 6.64096 14.6253 6.40021 14.0801 6.3999Z" fill="#3EC8BC"/>
<path d="M18.3434 21.6255L18.7267 20.6334L15.68 20.6328H10.3931L10.7767 21.6255H18.3434Z" fill="#3EC8BC"/>
<path fill-rule="evenodd" clip-rule="evenodd" d="M23.8887 9.65372L20.3687 18.9215C20.1597 19.4718 19.6827 19.8651 19.1175 19.953C18.552 20.041 17.9844 19.8102 17.628 19.348C17.2718 18.8855 17.1809 18.2616 17.39 17.7113L20.91 8.44357C21.2331 7.59266 22.1618 7.17388 22.9844 7.50812C23.8069 7.84236 24.2117 8.80297 23.8887 9.65372ZM18.88 17.3233C18.3497 17.3233 17.9199 17.7678 17.9199 18.3161C17.9205 18.8643 18.35 19.3086 18.88 19.3092C19.4101 19.3092 19.8399 18.8646 19.8399 18.3161C19.8399 17.7678 19.4101 17.3233 18.88 17.3233Z" fill="#3EC8BC"/>
<path d="M9.28003 18.6471V19.6401C9.28018 19.8228 9.42329 19.9708 9.59995 19.971H17.3119C16.9308 19.5819 16.6961 19.0651 16.6501 18.5133C16.6403 18.4905 16.6331 18.4666 16.6287 18.4422C16.5307 17.4287 15.7047 16.658 14.72 16.6611H11.2C10.14 16.6624 9.2812 17.5507 9.28003 18.6471Z" fill="#3EC8BC"/>
<path d="M19.1999 18.3158C19.1999 18.4987 19.0567 18.6468 18.88 18.6468C18.7032 18.6468 18.5599 18.4987 18.5599 18.3158C18.5599 18.133 18.7032 17.9849 18.88 17.9849C19.0567 17.9849 19.1999 18.133 19.1999 18.3158Z" fill="#3EC8BC"/>
<path d="M6.72009 25.5974H25.28C25.4568 25.5974 25.6 25.4493 25.6 25.2664C25.6 25.0837 25.4568 24.9355 25.28 24.9355H19.2004L19.2 22.2876H18.561L18.56 22.2877L18.5593 22.2876H10.5608L10.56 22.2877L10.559 22.2876H9.92004V24.9355H6.72009C6.54329 24.9355 6.40002 25.0837 6.40002 25.2664C6.40002 25.4493 6.54329 25.5974 6.72009 25.5974Z" fill="#3EC8BC"/>
</svg>
