<svg width="20" height="20" viewBox="0 0 20 20" fill="none" xmlns="http://www.w3.org/2000/svg">
<path fill-rule="evenodd" clip-rule="evenodd" d="M5.59508 1.36551L9.71228 5.48271C9.81271 5.5867 9.96144 5.6284 10.1013 5.59179C10.2411 5.55519 10.3504 5.44597 10.387 5.30612C10.4236 5.16627 10.3819 5.01754 10.2779 4.91711L5.47788 0.117115C5.32168 -0.0390382 5.06848 -0.0390382 4.91228 0.117115L0.112285 4.91711C-0.0393041 5.07407 -0.0371361 5.32355 0.117157 5.47784C0.271451 5.63214 0.520933 5.6343 0.677885 5.48271L4.79508 1.36551V16.3999C4.79508 16.6208 4.97417 16.7999 5.19508 16.7999C5.416 16.7999 5.59508 16.6208 5.59508 16.3999V1.36551ZM19.3123 14.5171C19.4685 14.361 19.7217 14.361 19.8779 14.5171C20.034 14.6733 20.034 14.9265 19.8779 15.0827L15.0779 19.8827C14.9217 20.0389 14.6685 20.0389 14.5123 19.8827L9.71228 15.0827C9.5607 14.9258 9.56286 14.6763 9.71716 14.522C9.87145 14.3677 10.1209 14.3655 10.2779 14.5171L14.3951 18.6343V3.59992C14.3951 3.379 14.5742 3.19992 14.7951 3.19992C15.016 3.19992 15.1951 3.379 15.1951 3.59992V18.6343L19.3123 14.5171Z" fill="black"/>
</svg>
